<svg width="71" height="65" viewBox="0 0 71 65" fill="none" xmlns="http://www.w3.org/2000/svg">
<path d="M19.3293 0L0.462891 9.43318V65H70.538V16.4865H38.1956V9.43318L19.3293 0ZM19.3293 6.02106L32.8052 12.759V59.6096H5.85328V12.759L19.3293 6.02106ZM11.2437 16.4865V21.8769H16.6341V16.4865H11.2437ZM22.0245 16.4865V21.8769H27.4148V16.4865H22.0245ZM38.1956 21.8769H65.1476V59.6096H38.1956V21.8769ZM11.2437 27.2673V32.6577H16.6341V27.2673H11.2437ZM22.0245 27.2673V32.6577H27.4148V27.2673H22.0245ZM43.586 27.2673V32.6577H48.9764V27.2673H43.586ZM54.3668 27.2673V32.6577H59.7572V27.2673H54.3668ZM11.2437 38.0481V43.4384H16.6341V38.0481H11.2437ZM22.0245 38.0481V43.4384H27.4148V38.0481H22.0245ZM43.586 38.0481V43.4384H48.9764V38.0481H43.586ZM54.3668 38.0481V43.4384H59.7572V38.0481H54.3668ZM11.2437 48.8288V54.2192H16.6341V48.8288H11.2437ZM22.0245 48.8288V54.2192H27.4148V48.8288H22.0245ZM43.586 48.8288V54.2192H48.9764V48.8288H43.586ZM54.3668 48.8288V54.2192H59.7572V48.8288H54.3668Z" fill="#41B1E9"/>
</svg>
