<svg width="691" height="572" viewBox="0 0 691 572" fill="none" xmlns="http://www.w3.org/2000/svg">
<path d="M460.129 155.603L463.56 150.457C463.888 149.965 463.719 149.296 463.196 149.019L424.176 128.321C423.778 128.11 423.288 128.191 422.979 128.518L400.751 152.094C400.411 152.454 399.86 152.512 399.454 152.231L396.318 150.059C395.891 149.764 395.309 149.844 394.978 150.244L387.305 159.516C387.157 159.695 387.075 159.921 387.075 160.153V164.51C387.075 164.873 386.879 165.207 386.561 165.384L384.231 166.678C384.013 166.799 383.758 166.835 383.516 166.778L354.151 159.868C353.944 159.82 353.757 159.705 353.619 159.543L348.463 153.477C348.107 153.058 348.156 152.43 348.572 152.072L360.158 142.095C360.405 141.883 360.738 141.803 361.053 141.882L375.524 145.5C375.886 145.59 376.267 145.472 376.514 145.194L381.268 139.847C381.565 139.512 381.604 139.02 381.362 138.643L376.487 131.026C376.262 130.674 375.84 130.499 375.431 130.588L354.184 135.236C353.762 135.328 353.329 135.14 353.11 134.769L343.393 118.35C343.282 118.163 343.112 118.017 342.911 117.934L336.022 115.116C335.667 114.971 335.26 115.042 334.975 115.298L332.236 117.763C332.025 117.953 331.905 118.223 331.905 118.507V131.358C331.905 131.848 331.55 132.266 331.066 132.345L312.798 135.334C312.575 135.371 312.346 135.33 312.148 135.22L304.123 130.726C303.807 130.549 303.612 130.215 303.612 129.853V124.641C303.612 123.992 303.004 123.515 302.374 123.67L285.876 127.716C285.326 127.852 284.997 128.417 285.153 128.962L286.928 135.175C286.969 135.317 287.04 135.448 287.137 135.559L299.278 149.434C299.338 149.502 299.388 149.578 299.427 149.66L303.551 158.252C303.591 158.336 303.62 158.425 303.635 158.517L312.417 210.156C312.441 210.295 312.435 210.437 312.4 210.573L307.071 231.224C306.923 231.797 306.313 232.117 305.758 231.913L296.471 228.508C296.284 228.44 296.082 228.428 295.889 228.475L280.516 232.233C280.355 232.273 280.186 232.271 280.025 232.229L265.859 228.519C265.578 228.445 265.279 228.498 265.039 228.662L260.295 231.924C259.969 232.149 259.541 232.159 259.203 231.951L243.328 222.156C243.202 222.078 243.059 222.029 242.912 222.013L224.576 220.012C224.069 219.957 223.685 219.529 223.685 219.018V214.319C223.685 213.865 223.379 213.469 222.941 213.352L176.203 200.981C175.827 200.881 175.428 201.009 175.179 201.307L165.305 213.156C165.099 213.403 165.025 213.734 165.105 214.046L167.66 223.945C167.751 224.296 167.645 224.668 167.383 224.918L159.962 232.016C159.776 232.194 159.529 232.293 159.271 232.293H152.8C152.455 232.293 152.135 232.471 151.952 232.763L149.247 237.092C148.951 237.565 149.1 238.188 149.577 238.477L174.069 253.302C174.736 253.705 175.587 253.225 175.587 252.446V249.976C175.587 249.552 175.854 249.175 176.254 249.033L181.268 247.264C181.482 247.188 181.716 247.188 181.931 247.263L215.235 258.937C215.636 259.077 215.904 259.456 215.904 259.881V269.23C215.904 269.361 215.879 269.49 215.829 269.61L210.639 282.262C210.424 282.786 210.686 283.383 211.216 283.58L219 286.463C219.458 286.632 219.727 287.109 219.634 287.589L218.198 295.056C218.101 295.564 218.406 296.062 218.902 296.206L229.295 299.214C230.129 299.455 230.28 300.571 229.541 301.026L227.344 302.379C227.048 302.561 226.868 302.883 226.868 303.23V309.354C226.868 309.796 226.578 310.185 226.155 310.312L220.579 311.985C220.123 312.122 219.827 312.562 219.871 313.036L223.62 352.909C223.659 353.324 223.951 353.671 224.352 353.781L231.011 355.597C231.299 355.675 231.606 355.621 231.85 355.449L246.856 344.877C246.968 344.798 247.096 344.743 247.23 344.715L277.051 338.545C277.491 338.454 277.937 338.667 278.142 339.066L283.609 349.677C283.735 349.923 283.957 350.105 284.223 350.181L295.99 353.543C296.119 353.58 296.239 353.642 296.343 353.726L308.658 363.646C308.826 363.782 308.946 363.967 308.999 364.176L315.161 388.139C315.238 388.437 315.447 388.683 315.729 388.806L332.077 395.958C332.197 396.011 332.305 396.086 332.396 396.18L341.527 405.65C341.707 405.836 341.807 406.085 341.807 406.344V417.365C341.807 417.734 342.01 418.073 342.336 418.247L367.536 431.71C367.595 431.741 367.656 431.767 367.72 431.786L402.405 442.192C402.764 442.299 403.033 442.599 403.101 442.967L404.703 451.616C404.739 451.811 404.716 452.013 404.637 452.196L400.366 462.051C400.237 462.349 400.261 462.69 400.429 462.968L405.916 472.005C406.078 472.272 406.106 472.598 405.993 472.889L403.335 479.681C403.141 480.175 403.368 480.735 403.851 480.955L418.929 487.839C419.142 487.936 419.314 488.105 419.415 488.316L423.144 496.083C423.352 496.517 423.839 496.741 424.303 496.617L433.901 494.057C434.04 494.02 434.169 493.954 434.28 493.862L450.275 480.65C450.345 480.592 450.407 480.524 450.459 480.45L455.678 472.947C455.898 472.63 456.282 472.469 456.663 472.532L466.333 474.144C466.538 474.178 466.728 474.276 466.875 474.423L472.24 479.788C472.656 480.204 473.339 480.173 473.716 479.721L477.521 475.154C477.931 474.663 477.78 473.918 477.211 473.625L467.604 468.676C467.088 468.41 466.906 467.762 467.208 467.267L475.411 453.814C475.463 453.728 475.503 453.634 475.527 453.536L478.011 443.601C478.168 442.972 478.872 442.657 479.446 442.958L499.675 453.57C499.818 453.645 499.977 453.684 500.139 453.684H505.612C506.165 453.684 506.612 453.236 506.612 452.684V443.367C506.612 442.815 506.165 442.367 505.612 442.367H501.785C500.981 442.367 500.506 441.467 500.959 440.804L510.421 426.925C510.475 426.846 510.517 426.76 510.547 426.668L517.063 406.433C517.163 406.124 517.407 405.882 517.717 405.785L521.982 404.453C522.487 404.295 522.782 403.771 522.655 403.258L514.819 371.576C514.772 371.384 514.669 371.21 514.523 371.077L507.264 364.45C506.892 364.11 506.831 363.546 507.122 363.134L522.36 341.603C522.656 341.185 522.587 340.61 522.202 340.273L520.739 338.993C520.35 338.652 520.284 338.071 520.589 337.652L522.523 334.993C522.743 334.69 522.776 334.291 522.609 333.957L520.255 329.249C520.125 328.991 519.891 328.801 519.611 328.728L510.865 326.461C510.631 326.4 510.383 326.426 510.167 326.534L500.872 331.182C500.346 331.445 499.708 331.199 499.494 330.652L496.85 323.895C496.76 323.665 496.587 323.476 496.366 323.365L478.477 314.421C478.373 314.369 478.26 314.335 478.145 314.322L461.164 312.363C460.529 312.29 460.125 311.649 460.332 311.045L463.83 300.842C464.017 300.299 463.708 299.711 463.156 299.555L450.792 296.068C450.529 295.994 450.308 295.815 450.18 295.574L447.385 290.294C447.265 290.067 447.061 289.894 446.817 289.813L437.803 286.808C437.701 286.774 437.594 286.757 437.486 286.757H429.084C428.903 286.757 428.725 286.806 428.57 286.899L423.988 289.648C423.687 289.829 423.502 290.155 423.502 290.506V302.521C423.502 302.621 423.487 302.72 423.458 302.815L419.575 315.434C419.404 315.99 418.797 316.284 418.255 316.072L403.417 310.265C403.146 310.159 402.842 310.177 402.585 310.313L392.074 315.877C391.507 316.178 390.807 315.873 390.641 315.253L387.181 302.356C387.113 302.105 387.146 301.837 387.273 301.61L395.404 287.042C395.508 286.857 395.549 286.643 395.524 286.433L393.475 269.701C393.453 269.522 393.48 269.34 393.553 269.175L400.075 254.413C400.132 254.286 400.161 254.148 400.161 254.009V245.671C400.161 245.119 399.713 244.671 399.161 244.671H397.21C396.46 244.671 395.977 243.876 396.323 243.21L400.019 236.103C400.111 235.925 400.255 235.779 400.432 235.684L437.259 215.881C437.507 215.747 437.688 215.516 437.756 215.242L439.661 207.621C439.731 207.343 439.678 207.048 439.515 206.812L432.549 196.679C432.239 196.228 431.625 196.11 431.17 196.413L430.194 197.064C429.566 197.482 428.718 197.081 428.645 196.329L425.378 163.013C425.321 162.425 425.783 161.915 426.373 161.915H439.625C439.721 161.915 439.818 161.901 439.91 161.873L459.583 156.006C459.807 155.939 460 155.797 460.129 155.603Z" fill="#DEF5FF" stroke="#125A7E" stroke-width="2"/>
<path d="M424.255 58.9674C423.339 55.0833 419.935 52.3843 416.007 52.3843C411.295 52.3843 407.498 56.2025 407.498 60.9423C407.498 65.4188 410.967 69.1053 415.353 69.4344V72.726C415.353 73.121 415.615 73.3843 416.007 73.3843C416.4 73.3843 416.662 73.121 416.662 72.726V65.7479V63.3122L419.739 60.2181C420 59.9548 420 59.5598 419.739 59.2965C419.477 59.0332 419.084 59.0332 418.822 59.2965L416.662 61.5347V59.5598L414.502 57.3874C414.24 57.1241 413.847 57.1241 413.586 57.3874C413.324 57.6507 413.324 58.0457 413.586 58.309L415.353 60.0865V64.168L412.866 61.6664C412.604 61.4031 412.211 61.4031 411.949 61.6664C411.687 61.9297 411.687 62.3247 411.949 62.588L415.353 66.0112V68.1178C411.687 67.7887 408.807 64.6946 408.807 60.9423C408.807 56.9266 412.015 53.7009 416.007 53.7009C420 53.7009 423.208 56.9266 423.208 60.9423C423.208 64.168 421.048 66.9987 417.971 67.9203V69.3028C422.553 68.1837 425.368 63.5755 424.255 58.9674Z" fill="#125A7E"/>
<path d="M364.826 82.5112H360.027V91.3843H358.708V81.4312H364.826V82.5112ZM371.847 83.9878V91.3843H370.576V85.0337H368.06L367.91 87.8022C367.828 89.0737 367.614 89.9829 367.267 90.5298C366.925 91.0767 366.381 91.3615 365.633 91.3843H365.128V90.27L365.49 90.2427C365.9 90.1971 366.194 89.9601 366.372 89.5317C366.549 89.1034 366.663 88.3104 366.713 87.1528L366.85 83.9878H371.847ZM377.487 89.5317L379.21 83.9878H380.564L377.59 92.5259C377.13 93.7563 376.398 94.3716 375.396 94.3716L375.156 94.3511L374.685 94.2622V93.2368L375.026 93.2642C375.455 93.2642 375.788 93.1776 376.025 93.0044C376.266 92.8312 376.464 92.5145 376.619 92.0542L376.9 91.3022L374.261 83.9878H375.642L377.487 89.5317ZM385.37 86.688L387.01 83.9878H388.487L386.067 87.645L388.562 91.3843H387.099L385.39 88.6157L383.681 91.3843H382.212L384.707 87.645L382.287 83.9878H383.75L385.37 86.688ZM390.552 87.6177C390.552 86.8931 390.693 86.2414 390.976 85.6626C391.263 85.0838 391.659 84.6372 392.165 84.3228C392.676 84.0083 393.257 83.8511 393.908 83.8511C394.916 83.8511 395.729 84.1997 396.349 84.897C396.973 85.5942 397.285 86.5216 397.285 87.6792V87.7681C397.285 88.4881 397.146 89.1353 396.868 89.7095C396.595 90.2791 396.201 90.7235 395.686 91.0425C395.175 91.3615 394.587 91.521 393.922 91.521C392.92 91.521 392.106 91.1724 391.482 90.4751C390.862 89.7778 390.552 88.855 390.552 87.7065V87.6177ZM391.823 87.7681C391.823 88.5884 392.013 89.2469 392.391 89.7437C392.774 90.2404 393.284 90.4888 393.922 90.4888C394.565 90.4888 395.075 90.2381 395.453 89.7368C395.832 89.231 396.021 88.5246 396.021 87.6177C396.021 86.8065 395.827 86.1502 395.44 85.6489C395.057 85.1431 394.546 84.8901 393.908 84.8901C393.284 84.8901 392.781 85.1385 392.398 85.6353C392.015 86.132 391.823 86.8429 391.823 87.7681ZM400.178 91.3843V83.9878H403.062C404.047 83.9878 404.801 84.161 405.325 84.5073C405.854 84.8491 406.118 85.3527 406.118 86.0181C406.118 86.3599 406.015 86.6698 405.81 86.9478C405.605 87.2212 405.302 87.4308 404.901 87.5767C405.348 87.6815 405.706 87.8866 405.974 88.1919C406.248 88.4972 406.385 88.8618 406.385 89.2856C406.385 89.9647 406.134 90.4842 405.633 90.8442C405.136 91.2043 404.432 91.3843 403.52 91.3843H400.178ZM401.442 88.1372V90.3657H403.534C404.063 90.3657 404.457 90.2677 404.717 90.0718C404.981 89.8758 405.113 89.6001 405.113 89.2446C405.113 88.5063 404.571 88.1372 403.486 88.1372H401.442ZM401.442 87.1255H403.076C404.261 87.1255 404.853 86.7791 404.853 86.0864C404.853 85.3937 404.293 85.036 403.172 85.0132H401.442V87.1255ZM412.216 90.4888C412.667 90.4888 413.062 90.3521 413.399 90.0786C413.736 89.8052 413.923 89.4634 413.959 89.0532H415.156C415.133 89.4771 414.987 89.8804 414.718 90.2632C414.449 90.646 414.089 90.9513 413.638 91.1792C413.191 91.4071 412.717 91.521 412.216 91.521C411.209 91.521 410.407 91.186 409.81 90.5161C409.217 89.8416 408.921 88.9211 408.921 87.7544V87.5425C408.921 86.8224 409.053 86.1821 409.318 85.6216C409.582 85.061 409.96 84.6258 410.452 84.3159C410.949 84.006 411.535 83.8511 412.209 83.8511C413.039 83.8511 413.727 84.0994 414.274 84.5962C414.825 85.0929 415.119 85.7378 415.156 86.5308H413.959C413.923 86.0522 413.741 85.6603 413.412 85.355C413.089 85.0451 412.688 84.8901 412.209 84.8901C411.567 84.8901 411.068 85.1226 410.712 85.5874C410.361 86.0477 410.186 86.7153 410.186 87.5903V87.8296C410.186 88.6818 410.361 89.3381 410.712 89.7983C411.063 90.2586 411.564 90.4888 412.216 90.4888ZM420.071 88.2329H419.148V91.3843H417.877V83.9878H419.148V87.1187H419.976L422.464 83.9878H423.995L421.069 87.5425L424.241 91.3843H422.635L420.071 88.2329ZM431.303 83.9878H432.568V91.3843H431.303V85.9907L427.892 91.3843H426.627V83.9878H427.892V89.3882L431.303 83.9878ZM440.573 83.9878H441.838V91.3843H440.573V85.9907L437.162 91.3843H435.897V83.9878H437.162V89.3882L440.573 83.9878ZM440.915 81.2944C440.915 81.8459 440.726 82.2902 440.348 82.6274C439.974 82.9601 439.482 83.1265 438.871 83.1265C438.26 83.1265 437.766 82.9578 437.388 82.6206C437.009 82.2834 436.82 81.8413 436.82 81.2944H437.853C437.853 81.6134 437.939 81.8641 438.112 82.0464C438.286 82.2241 438.538 82.313 438.871 82.313C439.19 82.313 439.439 82.2241 439.616 82.0464C439.799 81.8687 439.89 81.618 439.89 81.2944H440.915ZM455.784 83.9878V91.3843H454.513V85.0337H451.997L451.847 87.8022C451.765 89.0737 451.551 89.9829 451.204 90.5298C450.862 91.0767 450.318 91.3615 449.57 91.3843H449.065V90.27L449.427 90.2427C449.837 90.1971 450.131 89.9601 450.309 89.5317C450.486 89.1034 450.6 88.3104 450.651 87.1528L450.787 83.9878H455.784ZM462.074 91.521C461.071 91.521 460.256 91.1929 459.627 90.5366C458.998 89.8758 458.683 88.994 458.683 87.8911V87.6587C458.683 86.925 458.822 86.271 459.1 85.6968C459.383 85.118 459.775 84.6668 460.276 84.3433C460.782 84.0151 461.329 83.8511 461.917 83.8511C462.878 83.8511 463.626 84.1678 464.159 84.8013C464.692 85.4347 464.959 86.3416 464.959 87.522V88.0483H459.948C459.966 88.7775 460.178 89.3677 460.584 89.8188C460.994 90.2655 461.513 90.4888 462.142 90.4888C462.589 90.4888 462.967 90.3976 463.277 90.2153C463.587 90.033 463.858 89.7915 464.091 89.4907L464.863 90.0923C464.243 91.0448 463.314 91.521 462.074 91.521ZM461.917 84.8901C461.406 84.8901 460.978 85.077 460.632 85.4507C460.285 85.8198 460.071 86.3394 459.989 87.0093H463.694V86.9136C463.658 86.271 463.484 85.7743 463.175 85.4233C462.865 85.0679 462.445 84.8901 461.917 84.8901ZM470.585 90.4888C471.036 90.4888 471.431 90.3521 471.768 90.0786C472.105 89.8052 472.292 89.4634 472.328 89.0532H473.525C473.502 89.4771 473.356 89.8804 473.087 90.2632C472.818 90.646 472.458 90.9513 472.007 91.1792C471.56 91.4071 471.087 91.521 470.585 91.521C469.578 91.521 468.776 91.186 468.179 90.5161C467.587 89.8416 467.29 88.9211 467.29 87.7544V87.5425C467.29 86.8224 467.422 86.1821 467.687 85.6216C467.951 85.061 468.329 84.6258 468.822 84.3159C469.318 84.006 469.904 83.8511 470.578 83.8511C471.408 83.8511 472.096 84.0994 472.643 84.5962C473.194 85.0929 473.488 85.7378 473.525 86.5308H472.328C472.292 86.0522 472.11 85.6603 471.782 85.355C471.458 85.0451 471.057 84.8901 470.578 84.8901C469.936 84.8901 469.437 85.1226 469.081 85.5874C468.73 86.0477 468.555 86.7153 468.555 87.5903V87.8296C468.555 88.6818 468.73 89.3381 469.081 89.7983C469.432 90.2586 469.934 90.4888 470.585 90.4888Z" fill="#125A7E"/>
<path d="M58.8525 98.0205H57.6699V102.088H55.6191V92.1348H57.6699V96.1201H58.6064L61.04 92.1348H63.542L60.4727 96.8447L63.8633 102.088H61.416L58.8525 98.0205ZM65.2173 98.3213C65.2173 97.5876 65.3586 96.9336 65.6412 96.3594C65.9237 95.7852 66.3293 95.3408 66.858 95.0264C67.3912 94.7119 68.0087 94.5547 68.7105 94.5547C69.7086 94.5547 70.522 94.86 71.1509 95.4707C71.7844 96.0814 72.1376 96.9108 72.2105 97.959L72.2242 98.4648C72.2242 99.5996 71.9074 100.511 71.274 101.199C70.6405 101.883 69.7906 102.225 68.7242 102.225C67.6578 102.225 66.8056 101.883 66.1675 101.199C65.5341 100.516 65.2173 99.5859 65.2173 98.4102V98.3213ZM67.1929 98.4648C67.1929 99.1667 67.3251 99.7044 67.5894 100.078C67.8537 100.447 68.232 100.632 68.7242 100.632C69.2027 100.632 69.5764 100.45 69.8453 100.085C70.1142 99.7158 70.2486 99.1279 70.2486 98.3213C70.2486 97.6331 70.1142 97.0999 69.8453 96.7217C69.5764 96.3434 69.1981 96.1543 68.7105 96.1543C68.2274 96.1543 67.8537 96.3434 67.5894 96.7217C67.3251 97.0954 67.1929 97.6764 67.1929 98.4648ZM81.0431 102.088H79.0607V99.2441H76.6066V102.088H74.631V94.6914H76.6066V97.6582H79.0607V94.6914H81.0431V102.088ZM89.903 96.2773H87.5309V102.088H85.5485V96.2773H83.2175V94.6914H89.903V96.2773ZM96.2678 102.088C96.1767 101.91 96.1106 101.689 96.0696 101.425C95.5911 101.958 94.969 102.225 94.2034 102.225C93.4788 102.225 92.8772 102.015 92.3987 101.596C91.9247 101.176 91.6877 100.648 91.6877 100.01C91.6877 99.2259 91.9771 98.6243 92.5559 98.2051C93.1392 97.7858 93.9801 97.5739 95.0784 97.5693H95.9875V97.1455C95.9875 96.8037 95.8987 96.5303 95.7209 96.3252C95.5478 96.1201 95.272 96.0176 94.8938 96.0176C94.5611 96.0176 94.2991 96.0973 94.1077 96.2568C93.9208 96.4163 93.8274 96.6351 93.8274 96.9131H91.8518C91.8518 96.4847 91.984 96.0882 92.2483 95.7236C92.5126 95.359 92.8863 95.0742 93.3694 94.8691C93.8525 94.6595 94.3948 94.5547 94.9963 94.5547C95.9078 94.5547 96.6301 94.7848 97.1633 95.2451C97.7011 95.7008 97.97 96.3434 97.97 97.1729V100.379C97.9745 101.081 98.0725 101.612 98.2639 101.972V102.088H96.2678ZM94.634 100.714C94.9257 100.714 95.1946 100.65 95.4407 100.522C95.6868 100.39 95.8691 100.215 95.9875 99.9961V98.7246H95.2493C94.2603 98.7246 93.734 99.0664 93.6702 99.75L93.6633 99.8662C93.6633 100.112 93.7499 100.315 93.9231 100.475C94.0963 100.634 94.3332 100.714 94.634 100.714ZM107.336 98.458C107.336 99.5973 107.076 100.511 106.556 101.199C106.041 101.883 105.344 102.225 104.465 102.225C103.717 102.225 103.113 101.965 102.653 101.445V104.932H100.678V94.6914H102.51L102.578 95.416C103.056 94.8418 103.681 94.5547 104.451 94.5547C105.362 94.5547 106.071 94.8919 106.577 95.5664C107.083 96.2409 107.336 97.1706 107.336 98.3555V98.458ZM105.36 98.3145C105.36 97.6263 105.237 97.0954 104.991 96.7217C104.749 96.348 104.396 96.1611 103.931 96.1611C103.312 96.1611 102.886 96.3981 102.653 96.8721V99.9004C102.895 100.388 103.325 100.632 103.945 100.632C104.888 100.632 105.36 99.8594 105.36 98.3145ZM116.168 102.088H114.186V99.2441H111.732V102.088H109.756V94.6914H111.732V97.6582H114.186V94.6914H116.168V102.088ZM118.582 98.3213C118.582 97.5876 118.723 96.9336 119.006 96.3594C119.288 95.7852 119.694 95.3408 120.223 95.0264C120.756 94.7119 121.373 94.5547 122.075 94.5547C123.073 94.5547 123.887 94.86 124.516 95.4707C125.149 96.0814 125.502 96.9108 125.575 97.959L125.589 98.4648C125.589 99.5996 125.272 100.511 124.639 101.199C124.005 101.883 123.155 102.225 122.089 102.225C121.022 102.225 120.17 101.883 119.532 101.199C118.899 100.516 118.582 99.5859 118.582 98.4102V98.3213ZM120.558 98.4648C120.558 99.1667 120.69 99.7044 120.954 100.078C121.218 100.447 121.597 100.632 122.089 100.632C122.567 100.632 122.941 100.45 123.21 100.085C123.479 99.7158 123.613 99.1279 123.613 98.3213C123.613 97.6331 123.479 97.0999 123.21 96.7217C122.941 96.3434 122.563 96.1543 122.075 96.1543C121.592 96.1543 121.218 96.3434 120.954 96.7217C120.69 97.0954 120.558 97.6764 120.558 98.4648ZM131.4 102.225C130.315 102.225 129.431 101.892 128.748 101.227C128.069 100.561 127.729 99.6748 127.729 98.5674V98.376C127.729 97.6331 127.873 96.9701 128.16 96.3867C128.447 95.7988 128.852 95.3477 129.376 95.0332C129.905 94.7142 130.507 94.5547 131.181 94.5547C132.193 94.5547 132.988 94.8737 133.567 95.5117C134.15 96.1497 134.442 97.0544 134.442 98.2256V99.0322H129.732C129.796 99.5153 129.987 99.9027 130.306 100.194C130.63 100.486 131.038 100.632 131.53 100.632C132.291 100.632 132.886 100.356 133.314 99.8047L134.285 100.892C133.988 101.311 133.587 101.639 133.082 101.876C132.576 102.108 132.015 102.225 131.4 102.225ZM131.174 96.1543C130.782 96.1543 130.463 96.2865 130.217 96.5508C129.976 96.8151 129.821 97.1934 129.752 97.6855H132.5V97.5283C132.491 97.0908 132.373 96.7536 132.145 96.5166C131.917 96.2751 131.594 96.1543 131.174 96.1543Z" fill="#125A7E"/>
<circle cx="95.2156" cy="120.098" r="4.01055" stroke="#125A7E" stroke-width="2"/>
<path d="M463.819 149.537L472.661 139.281L482.21 78.8051L500.954 62.8904H514.039L520.405 74.9148L527.478 77.0368V60.7684L514.039 24.3415L505.198 20.0976L472.661 16.2074L455.685 29.6464L380.002 1L344.283 3.47562L338.978 9.84148L347.819 16.2074L344.283 34.5976V44.5001L338.978 54.0489L357.722 62.8904V70.3172L353.831 78.8051L338.978 83.049L331.551 109.927L334.734 115.586" stroke="#125A7E" stroke-dasharray="10 5"/>
<path d="M2.88379 253.628V261.934H5.64551V253.628H7.70312V261.934H10.4375V253.628H12.4883V263.581H0.826172V253.628H2.88379ZM19.6119 263.581C19.5207 263.403 19.4546 263.182 19.4136 262.918C18.9351 263.451 18.313 263.718 17.5474 263.718C16.8228 263.718 16.2213 263.508 15.7427 263.089C15.2688 262.67 15.0318 262.141 15.0318 261.503C15.0318 260.719 15.3212 260.118 15.9 259.698C16.4833 259.279 17.3241 259.067 18.4224 259.062H19.3316V258.639C19.3316 258.297 19.2427 258.023 19.065 257.818C18.8918 257.613 18.6161 257.511 18.2379 257.511C17.9052 257.511 17.6431 257.59 17.4517 257.75C17.2649 257.91 17.1714 258.128 17.1714 258.406H15.1959C15.1959 257.978 15.328 257.581 15.5923 257.217C15.8567 256.852 16.2304 256.567 16.7134 256.362C17.1965 256.153 17.7388 256.048 18.3404 256.048C19.2518 256.048 19.9742 256.278 20.5074 256.738C21.0451 257.194 21.314 257.837 21.314 258.666V261.872C21.3186 262.574 21.4166 263.105 21.608 263.465V263.581H19.6119ZM17.9781 262.207C18.2698 262.207 18.5386 262.143 18.7847 262.016C19.0308 261.883 19.2131 261.708 19.3316 261.489V260.218H18.5933C17.6044 260.218 17.078 260.56 17.0142 261.243L17.0074 261.359C17.0074 261.605 17.094 261.808 17.2671 261.968C17.4403 262.127 17.6773 262.207 17.9781 262.207ZM26.838 258.393L28.0821 256.185H30.1945L28.089 259.808L30.2833 263.581H28.1642L26.8448 261.257L25.5323 263.581H23.4064L25.6007 259.808L23.5021 256.185H25.6212L26.838 258.393ZM38.4733 257.771H36.1012V263.581H34.1188V257.771H31.7878V256.185H38.4733V257.771ZM43.6282 263.718C42.5435 263.718 41.6594 263.385 40.9758 262.72C40.2968 262.054 39.9573 261.168 39.9573 260.061V259.869C39.9573 259.126 40.1008 258.463 40.3879 257.88C40.675 257.292 41.0806 256.841 41.6047 256.526C42.1334 256.207 42.7349 256.048 43.4094 256.048C44.4211 256.048 45.2164 256.367 45.7952 257.005C46.3785 257.643 46.6702 258.548 46.6702 259.719V260.525H41.9602C42.024 261.008 42.2154 261.396 42.5344 261.688C42.858 261.979 43.2659 262.125 43.758 262.125C44.5191 262.125 45.1138 261.849 45.5422 261.298L46.5129 262.385C46.2167 262.804 45.8157 263.132 45.3098 263.369C44.8039 263.602 44.2434 263.718 43.6282 263.718ZM43.4026 257.647C43.0107 257.647 42.6916 257.78 42.4455 258.044C42.204 258.308 42.0491 258.687 41.9807 259.179H44.7288V259.021C44.7196 258.584 44.6011 258.247 44.3733 258.01C44.1454 257.768 43.8219 257.647 43.4026 257.647ZM55.6463 259.951C55.6463 261.09 55.3865 262.004 54.867 262.692C54.352 263.376 53.6548 263.718 52.7752 263.718C52.0278 263.718 51.424 263.458 50.9637 262.938V266.425H48.9881V256.185H50.8201L50.8885 256.909C51.367 256.335 51.9913 256.048 52.7615 256.048C53.673 256.048 54.3816 256.385 54.8875 257.06C55.3934 257.734 55.6463 258.664 55.6463 259.849V259.951ZM53.6707 259.808C53.6707 259.119 53.5477 258.589 53.3016 258.215C53.06 257.841 52.7068 257.654 52.242 257.654C51.6222 257.654 51.1961 257.891 50.9637 258.365V261.394C51.2052 261.881 51.6359 262.125 52.2557 262.125C53.199 262.125 53.6707 261.353 53.6707 259.808ZM61.1429 262.125C61.5075 262.125 61.8037 262.025 62.0316 261.824C62.2595 261.624 62.378 261.357 62.3871 261.024H64.2396C64.2351 261.526 64.0983 261.986 63.8295 262.405C63.5606 262.82 63.1914 263.144 62.722 263.376C62.2572 263.604 61.7422 263.718 61.1771 263.718C60.1198 263.718 59.2858 263.383 58.6752 262.713C58.0645 262.038 57.7591 261.109 57.7591 259.924V259.794C57.7591 258.655 58.0622 257.745 58.6683 257.066C59.2744 256.387 60.1061 256.048 61.1634 256.048C62.0886 256.048 62.8291 256.312 63.3851 256.841C63.9457 257.365 64.2305 258.064 64.2396 258.939H62.3871C62.378 258.557 62.2595 258.247 62.0316 258.01C61.8037 257.768 61.503 257.647 61.1293 257.647C60.669 257.647 60.3203 257.816 60.0834 258.153C59.8509 258.486 59.7347 259.028 59.7347 259.78V259.985C59.7347 260.746 59.8509 261.293 60.0834 261.626C60.3158 261.959 60.669 262.125 61.1429 262.125ZM69.456 260.854H68.663V263.581H66.6874V256.185H68.663V258.967H69.3671L70.9804 256.185H73.4755L71.0556 259.705L73.7011 263.581H71.0693L69.456 260.854Z" fill="#125A7E"/>
<circle cx="36.95" cy="281.592" r="4.01055" stroke="#125A7E" stroke-width="2"/>
<path d="M55.834 492.024H51.3906V493.952H52.9902C54.1615 493.952 55.0889 494.237 55.7725 494.807C56.4606 495.372 56.8047 496.135 56.8047 497.097C56.8047 498.063 56.4629 498.84 55.7793 499.428C55.1003 500.011 54.1956 500.307 53.0654 500.316H49.3193V490.363H55.834V492.024ZM51.3906 495.606V498.669H53.0244C53.5485 498.669 53.9655 498.525 54.2754 498.238C54.5898 497.951 54.7471 497.566 54.7471 497.083C54.7471 496.632 54.5967 496.276 54.2959 496.017C53.9997 495.752 53.5918 495.616 53.0723 495.606H51.3906ZM58.8697 496.55C58.8697 495.816 59.011 495.162 59.2935 494.588C59.5761 494.014 59.9817 493.569 60.5103 493.255C61.0435 492.94 61.661 492.783 62.3629 492.783C63.3609 492.783 64.1744 493.089 64.8033 493.699C65.4367 494.31 65.7899 495.139 65.8629 496.188L65.8765 496.693C65.8765 497.828 65.5598 498.74 64.9263 499.428C64.2929 500.111 63.4429 500.453 62.3765 500.453C61.3101 500.453 60.4579 500.111 59.8199 499.428C59.1864 498.744 58.8697 497.814 58.8697 496.639V496.55ZM60.8453 496.693C60.8453 497.395 60.9774 497.933 61.2418 498.307C61.5061 498.676 61.8843 498.86 62.3765 498.86C62.855 498.86 63.2287 498.678 63.4976 498.313C63.7665 497.944 63.9009 497.356 63.9009 496.55C63.9009 495.862 63.7665 495.328 63.4976 494.95C63.2287 494.572 62.8505 494.383 62.3629 494.383C61.8798 494.383 61.5061 494.572 61.2418 494.95C60.9774 495.324 60.8453 495.905 60.8453 496.693ZM74.6066 492.92V500.316H72.631V494.52H70.8878L70.7648 496.803C70.6873 498.02 70.448 498.906 70.047 499.462C69.646 500.018 69.0489 500.303 68.256 500.316H67.5861L67.5655 498.71L67.8116 498.689C68.1671 498.662 68.4269 498.452 68.5909 498.061C68.755 497.669 68.8575 497.001 68.8986 496.058L69.0353 492.92H74.6066ZM79.4333 495.087H80.8483C81.4863 495.087 82.0469 495.194 82.53 495.408C83.013 495.622 83.3822 495.93 83.6374 496.331C83.8971 496.728 84.027 497.19 84.027 497.719C84.027 498.498 83.7376 499.127 83.1589 499.605C82.5846 500.079 81.8008 500.316 80.8073 500.316H77.4509V492.92H79.4333V495.087ZM79.4333 496.673V498.737H80.8346C81.2266 498.737 81.5274 498.646 81.737 498.464C81.9466 498.282 82.0514 498.033 82.0514 497.719C82.0514 497.4 81.9489 497.147 81.7438 496.96C81.5387 496.769 81.2357 496.673 80.8346 496.673H79.4333ZM88.3069 492.92V498.724H90.3372V492.92H92.3196V498.724H94.3498V492.92H96.3254V500.316H86.3313V492.92H88.3069ZM103.388 500.316C103.296 500.139 103.23 499.918 103.189 499.653C102.711 500.187 102.089 500.453 101.323 500.453C100.598 500.453 99.9969 500.243 99.5184 499.824C99.0444 499.405 98.8074 498.876 98.8074 498.238C98.8074 497.454 99.0968 496.853 99.6756 496.434C100.259 496.014 101.1 495.802 102.198 495.798H103.107V495.374C103.107 495.032 103.018 494.759 102.841 494.554C102.667 494.349 102.392 494.246 102.013 494.246C101.681 494.246 101.419 494.326 101.227 494.485C101.04 494.645 100.947 494.864 100.947 495.142H98.9715C98.9715 494.713 99.1036 494.317 99.368 493.952C99.6323 493.588 100.006 493.303 100.489 493.098C100.972 492.888 101.514 492.783 102.116 492.783C103.027 492.783 103.75 493.013 104.283 493.474C104.821 493.929 105.09 494.572 105.09 495.401V498.607C105.094 499.309 105.192 499.84 105.384 500.2V500.316H103.388ZM101.754 498.942C102.045 498.942 102.314 498.879 102.56 498.751C102.806 498.619 102.989 498.443 103.107 498.225V496.953H102.369C101.38 496.953 100.854 497.295 100.79 497.979L100.783 498.095C100.783 498.341 100.87 498.544 101.043 498.703C101.216 498.863 101.453 498.942 101.754 498.942ZM113.963 492.92V500.316H111.994V497.76H110.744L109.322 500.316H107.319L108.932 497.425C108.49 497.22 108.148 496.942 107.907 496.591C107.67 496.24 107.551 495.841 107.551 495.395C107.551 494.679 107.827 494.093 108.378 493.638C108.934 493.177 109.677 492.938 110.607 492.92H113.963ZM110.641 496.379H111.994V494.506H110.709C110.358 494.506 110.074 494.599 109.855 494.786C109.636 494.968 109.527 495.192 109.527 495.456C109.527 495.72 109.632 495.939 109.841 496.112C110.051 496.285 110.317 496.374 110.641 496.379ZM123.671 490.363V498.669H126.433V490.363H128.491V498.669H131.225V490.363H133.276V500.316H121.614V490.363H123.671ZM140.57 492.92H142.546V500.316H140.57V495.75L138.096 500.316H136.113V492.92H138.096V497.479L140.57 492.92ZM147.222 492.92V498.724H149.253V492.92H151.235V498.724H153.265V492.92H155.241V500.316H145.247V492.92H147.222ZM157.709 496.55C157.709 495.816 157.85 495.162 158.133 494.588C158.416 494.014 158.821 493.569 159.35 493.255C159.883 492.94 160.5 492.783 161.202 492.783C162.2 492.783 163.014 493.089 163.643 493.699C164.276 494.31 164.629 495.139 164.702 496.188L164.716 496.693C164.716 497.828 164.399 498.74 163.766 499.428C163.132 500.111 162.282 500.453 161.216 500.453C160.15 500.453 159.297 500.111 158.659 499.428C158.026 498.744 157.709 497.814 157.709 496.639V496.55ZM159.685 496.693C159.685 497.395 159.817 497.933 160.081 498.307C160.346 498.676 160.724 498.86 161.216 498.86C161.694 498.86 162.068 498.678 162.337 498.313C162.606 497.944 162.74 497.356 162.74 496.55C162.74 495.862 162.606 495.328 162.337 494.95C162.068 494.572 161.69 494.383 161.202 494.383C160.719 494.383 160.346 494.572 160.081 494.95C159.817 495.324 159.685 495.905 159.685 496.693ZM167.253 500.316V492.92H170.342C171.35 492.92 172.122 493.098 172.66 493.453C173.198 493.809 173.467 494.319 173.467 494.984C173.467 495.326 173.353 495.634 173.125 495.907C172.901 496.176 172.573 496.383 172.14 496.529C172.669 496.63 173.084 496.828 173.384 497.124C173.69 497.416 173.842 497.776 173.842 498.204C173.842 498.892 173.583 499.416 173.063 499.776C172.548 500.136 171.799 500.316 170.814 500.316H167.253ZM169.228 497.247V498.737H170.821C171.518 498.737 171.867 498.493 171.867 498.006C171.867 497.509 171.534 497.256 170.869 497.247H169.228ZM169.228 495.921H170.452C171.145 495.912 171.491 495.688 171.491 495.251C171.491 494.982 171.395 494.791 171.204 494.677C171.017 494.563 170.73 494.506 170.342 494.506H169.228V495.921ZM179.141 497.589H178.348V500.316H176.372V492.92H178.348V495.702H179.052L180.665 492.92H183.16L180.741 496.44L183.386 500.316H180.754L179.141 497.589ZM189.607 500.316C189.516 500.139 189.45 499.918 189.409 499.653C188.931 500.187 188.308 500.453 187.543 500.453C186.818 500.453 186.217 500.243 185.738 499.824C185.264 499.405 185.027 498.876 185.027 498.238C185.027 497.454 185.317 496.853 185.895 496.434C186.479 496.014 187.32 495.802 188.418 495.798H189.327V495.374C189.327 495.032 189.238 494.759 189.06 494.554C188.887 494.349 188.612 494.246 188.233 494.246C187.901 494.246 187.639 494.326 187.447 494.485C187.26 494.645 187.167 494.864 187.167 495.142H185.191C185.191 494.713 185.323 494.317 185.588 493.952C185.852 493.588 186.226 493.303 186.709 493.098C187.192 492.888 187.734 492.783 188.336 492.783C189.247 492.783 189.97 493.013 190.503 493.474C191.041 493.929 191.309 494.572 191.309 495.401V498.607C191.314 499.309 191.412 499.84 191.603 500.2V500.316H189.607ZM187.973 498.942C188.265 498.942 188.534 498.879 188.78 498.751C189.026 498.619 189.209 498.443 189.327 498.225V496.953H188.589C187.6 496.953 187.073 497.295 187.01 497.979L187.003 498.095C187.003 498.341 187.089 498.544 187.263 498.703C187.436 498.863 187.673 498.942 187.973 498.942Z" fill="#125A7E"/>
<circle cx="120.45" cy="518.327" r="4.01055" stroke="#125A7E" stroke-width="2"/>
<path d="M182.754 382.833H179.705V391.125H177.654V382.833H174.646V381.171H182.754V382.833ZM187.779 391.261C186.694 391.261 185.81 390.929 185.127 390.263C184.447 389.598 184.108 388.711 184.108 387.604V387.413C184.108 386.67 184.252 386.007 184.539 385.423C184.826 384.835 185.231 384.384 185.755 384.07C186.284 383.751 186.886 383.591 187.56 383.591C188.572 383.591 189.367 383.91 189.946 384.548C190.529 385.186 190.821 386.091 190.821 387.262V388.069H186.111C186.175 388.552 186.366 388.939 186.685 389.231C187.009 389.523 187.417 389.668 187.909 389.668C188.67 389.668 189.265 389.393 189.693 388.841L190.664 389.928C190.367 390.347 189.966 390.676 189.461 390.913C188.955 391.145 188.394 391.261 187.779 391.261ZM187.553 385.191C187.161 385.191 186.842 385.323 186.596 385.587C186.355 385.852 186.2 386.23 186.131 386.722H188.879V386.565C188.87 386.127 188.752 385.79 188.524 385.553C188.296 385.312 187.973 385.191 187.553 385.191ZM199.797 387.495C199.797 388.634 199.537 389.548 199.018 390.236C198.503 390.919 197.805 391.261 196.926 391.261C196.179 391.261 195.575 391.001 195.114 390.482V393.968H193.139V383.728H194.971L195.039 384.453C195.518 383.878 196.142 383.591 196.912 383.591C197.824 383.591 198.532 383.929 199.038 384.603C199.544 385.278 199.797 386.207 199.797 387.392V387.495ZM197.821 387.351C197.821 386.663 197.698 386.132 197.452 385.758C197.211 385.385 196.858 385.198 196.393 385.198C195.773 385.198 195.347 385.435 195.114 385.909V388.937C195.356 389.425 195.787 389.668 196.406 389.668C197.35 389.668 197.821 388.896 197.821 387.351ZM208.63 391.125H206.647V388.281H204.193V391.125H202.217V383.728H204.193V386.695H206.647V383.728H208.63V391.125ZM211.043 387.358C211.043 386.624 211.184 385.97 211.467 385.396C211.75 384.822 212.155 384.377 212.684 384.063C213.217 383.749 213.835 383.591 214.536 383.591C215.534 383.591 216.348 383.897 216.977 384.507C217.61 385.118 217.963 385.947 218.036 386.996L218.05 387.501C218.05 388.636 217.733 389.548 217.1 390.236C216.466 390.919 215.616 391.261 214.55 391.261C213.484 391.261 212.631 390.919 211.993 390.236C211.36 389.552 211.043 388.623 211.043 387.447V387.358ZM213.019 387.501C213.019 388.203 213.151 388.741 213.415 389.115C213.68 389.484 214.058 389.668 214.55 389.668C215.029 389.668 215.402 389.486 215.671 389.122C215.94 388.752 216.074 388.165 216.074 387.358C216.074 386.67 215.94 386.137 215.671 385.758C215.402 385.38 215.024 385.191 214.536 385.191C214.053 385.191 213.68 385.38 213.415 385.758C213.151 386.132 213.019 386.713 213.019 387.501ZM220.587 391.125V383.728H223.677C224.684 383.728 225.456 383.906 225.994 384.261C226.532 384.617 226.801 385.127 226.801 385.792C226.801 386.134 226.687 386.442 226.459 386.715C226.235 386.984 225.907 387.192 225.474 387.337C226.003 387.438 226.418 387.636 226.719 387.932C227.024 388.224 227.177 388.584 227.177 389.012C227.177 389.7 226.917 390.224 226.397 390.584C225.882 390.944 225.133 391.125 224.148 391.125H220.587ZM222.562 388.055V389.545H224.155C224.852 389.545 225.201 389.302 225.201 388.814C225.201 388.317 224.868 388.064 224.203 388.055H222.562ZM222.562 386.729H223.786C224.479 386.72 224.825 386.497 224.825 386.059C224.825 385.79 224.729 385.599 224.538 385.485C224.351 385.371 224.064 385.314 223.677 385.314H222.562V386.729ZM229.269 387.358C229.269 386.624 229.41 385.97 229.693 385.396C229.975 384.822 230.381 384.377 230.91 384.063C231.443 383.749 232.06 383.591 232.762 383.591C233.76 383.591 234.574 383.897 235.202 384.507C235.836 385.118 236.189 385.947 236.262 386.996L236.276 387.501C236.276 388.636 235.959 389.548 235.326 390.236C234.692 390.919 233.842 391.261 232.776 391.261C231.709 391.261 230.857 390.919 230.219 390.236C229.586 389.552 229.269 388.623 229.269 387.447V387.358ZM231.244 387.501C231.244 388.203 231.377 388.741 231.641 389.115C231.905 389.484 232.284 389.668 232.776 389.668C233.254 389.668 233.628 389.486 233.897 389.122C234.166 388.752 234.3 388.165 234.3 387.358C234.3 386.67 234.166 386.137 233.897 385.758C233.628 385.38 233.25 385.191 232.762 385.191C232.279 385.191 231.905 385.38 231.641 385.758C231.377 386.132 231.244 386.713 231.244 387.501ZM242.087 391.261C241.002 391.261 240.118 390.929 239.434 390.263C238.755 389.598 238.416 388.711 238.416 387.604V387.413C238.416 386.67 238.559 386.007 238.847 385.423C239.134 384.835 239.539 384.384 240.063 384.07C240.592 383.751 241.194 383.591 241.868 383.591C242.88 383.591 243.675 383.91 244.254 384.548C244.837 385.186 245.129 386.091 245.129 387.262V388.069H240.419C240.483 388.552 240.674 388.939 240.993 389.231C241.317 389.523 241.725 389.668 242.217 389.668C242.978 389.668 243.573 389.393 244.001 388.841L244.972 389.928C244.675 390.347 244.274 390.676 243.768 390.913C243.263 391.145 242.702 391.261 242.087 391.261ZM241.861 385.191C241.469 385.191 241.15 385.323 240.904 385.587C240.663 385.852 240.508 386.23 240.439 386.722H243.187V386.565C243.178 386.127 243.06 385.79 242.832 385.553C242.604 385.312 242.281 385.191 241.861 385.191Z" fill="#125A7E"/>
<circle cx="210.373" cy="406.579" r="3.59757" stroke="#125A7E" stroke-width="2"/>
<path d="M419.316 538.995L421.873 546.213L424.416 538.995H427.109V548.948H425.052V546.227L425.257 541.531L422.57 548.948H421.162L418.482 541.538L418.688 546.227V548.948H416.637V538.995H419.316ZM434.247 548.948C434.155 548.77 434.089 548.549 434.048 548.285C433.57 548.818 432.948 549.084 432.182 549.084C431.458 549.084 430.856 548.875 430.378 548.456C429.904 548.036 429.667 547.508 429.667 546.87C429.667 546.086 429.956 545.484 430.535 545.065C431.118 544.646 431.959 544.434 433.057 544.429H433.966V544.005C433.966 543.664 433.878 543.39 433.7 543.185C433.527 542.98 433.251 542.877 432.873 542.877C432.54 542.877 432.278 542.957 432.086 543.117C431.9 543.276 431.806 543.495 431.806 543.773H429.831C429.831 543.345 429.963 542.948 430.227 542.583C430.491 542.219 430.865 541.934 431.348 541.729C431.831 541.519 432.374 541.415 432.975 541.415C433.887 541.415 434.609 541.645 435.142 542.105C435.68 542.561 435.949 543.203 435.949 544.033V547.239C435.953 547.941 436.051 548.472 436.243 548.832V548.948H434.247ZM432.613 547.574C432.905 547.574 433.173 547.51 433.419 547.382C433.666 547.25 433.848 547.075 433.966 546.856V545.584H433.228C432.239 545.584 431.713 545.926 431.649 546.61L431.642 546.726C431.642 546.972 431.729 547.175 431.902 547.334C432.075 547.494 432.312 547.574 432.613 547.574ZM445.068 548.948H443.086V546.104H440.632V548.948H438.656V541.551H440.632V544.518H443.086V541.551H445.068V548.948ZM450.551 546.152L451.919 541.551H454.038L451.064 550.096L450.9 550.486C450.458 551.452 449.729 551.935 448.713 551.935C448.425 551.935 448.134 551.892 447.838 551.805V550.308L448.138 550.315C448.512 550.315 448.79 550.258 448.972 550.144C449.159 550.03 449.305 549.841 449.41 549.577L449.642 548.968L447.051 541.551H449.177L450.551 546.152ZM460.464 541.551H462.44V548.948H460.464V544.381L457.989 548.948H456.007V541.551H457.989V546.111L460.464 541.551ZM461.626 538.55C461.626 539.156 461.407 539.646 460.97 540.02C460.537 540.394 459.967 540.581 459.261 540.581C458.555 540.581 457.983 540.396 457.545 540.027C457.112 539.658 456.896 539.166 456.896 538.55H458.297C458.297 538.837 458.381 539.061 458.55 539.22C458.723 539.375 458.96 539.453 459.261 539.453C459.557 539.453 459.79 539.375 459.958 539.22C460.127 539.061 460.211 538.837 460.211 538.55H461.626ZM471.573 541.551V548.948H469.597V543.151H467.854L467.731 545.434C467.654 546.651 467.415 547.537 467.013 548.093C466.612 548.649 466.015 548.934 465.222 548.948H464.553L464.532 547.341L464.778 547.321C465.134 547.293 465.393 547.084 465.557 546.692C465.721 546.3 465.824 545.632 465.865 544.689L466.002 541.551H471.573ZM473.98 545.181C473.98 544.447 474.121 543.793 474.404 543.219C474.686 542.645 475.092 542.201 475.62 541.886C476.154 541.572 476.771 541.415 477.473 541.415C478.471 541.415 479.285 541.72 479.913 542.331C480.547 542.941 480.9 543.771 480.973 544.819L480.987 545.325C480.987 546.459 480.67 547.371 480.036 548.059C479.403 548.743 478.553 549.084 477.487 549.084C476.42 549.084 475.568 548.743 474.93 548.059C474.297 547.375 473.98 546.446 473.98 545.27V545.181ZM475.955 545.325C475.955 546.027 476.088 546.564 476.352 546.938C476.616 547.307 476.994 547.492 477.487 547.492C477.965 547.492 478.339 547.309 478.608 546.945C478.877 546.576 479.011 545.988 479.011 545.181C479.011 544.493 478.877 543.96 478.608 543.582C478.339 543.203 477.961 543.014 477.473 543.014C476.99 543.014 476.616 543.203 476.352 543.582C476.088 543.955 475.955 544.536 475.955 545.325ZM483.523 548.948V541.551H486.613C487.62 541.551 488.393 541.729 488.931 542.084C489.468 542.44 489.737 542.95 489.737 543.616C489.737 543.958 489.623 544.265 489.395 544.539C489.172 544.807 488.844 545.015 488.411 545.161C488.94 545.261 489.354 545.459 489.655 545.755C489.961 546.047 490.113 546.407 490.113 546.835C490.113 547.524 489.853 548.048 489.334 548.408C488.819 548.768 488.069 548.948 487.085 548.948H483.523ZM485.499 545.878V547.369H487.092C487.789 547.369 488.138 547.125 488.138 546.637C488.138 546.14 487.805 545.888 487.14 545.878H485.499ZM485.499 544.552H486.723C487.415 544.543 487.762 544.32 487.762 543.882C487.762 543.613 487.666 543.422 487.475 543.308C487.288 543.194 487.001 543.137 486.613 543.137H485.499V544.552ZM495.412 546.22H494.619V548.948H492.643V541.551H494.619V544.333H495.323L496.936 541.551H499.431L497.011 545.072L499.657 548.948H497.025L495.412 546.22ZM505.878 548.948C505.787 548.77 505.721 548.549 505.68 548.285C505.201 548.818 504.579 549.084 503.814 549.084C503.089 549.084 502.487 548.875 502.009 548.456C501.535 548.036 501.298 547.508 501.298 546.87C501.298 546.086 501.587 545.484 502.166 545.065C502.749 544.646 503.59 544.434 504.689 544.429H505.598V544.005C505.598 543.664 505.509 543.39 505.331 543.185C505.158 542.98 504.882 542.877 504.504 542.877C504.171 542.877 503.909 542.957 503.718 543.117C503.531 543.276 503.438 543.495 503.438 543.773H501.462C501.462 543.345 501.594 542.948 501.858 542.583C502.123 542.219 502.496 541.934 502.98 541.729C503.463 541.519 504.005 541.415 504.606 541.415C505.518 541.415 506.24 541.645 506.773 542.105C507.311 542.561 507.58 543.203 507.58 544.033V547.239C507.585 547.941 507.683 548.472 507.874 548.832V548.948H505.878ZM504.244 547.574C504.536 547.574 504.805 547.51 505.051 547.382C505.297 547.25 505.479 547.075 505.598 546.856V545.584H504.859C503.87 545.584 503.344 545.926 503.28 546.61L503.273 546.726C503.273 546.972 503.36 547.175 503.533 547.334C503.706 547.494 503.943 547.574 504.244 547.574Z" fill="#125A7E"/>
<circle cx="462.247" cy="566.958" r="4.01055" stroke="#125A7E" stroke-width="2"/>
<path d="M631.935 341.013C631.857 342.084 631.461 342.927 630.745 343.542C630.034 344.157 629.095 344.465 627.929 344.465C626.653 344.465 625.648 344.036 624.914 343.18C624.185 342.318 623.82 341.138 623.82 339.639V339.03C623.82 338.073 623.989 337.23 624.326 336.501C624.663 335.772 625.144 335.214 625.769 334.826C626.397 334.434 627.127 334.238 627.956 334.238C629.104 334.238 630.03 334.546 630.731 335.161C631.433 335.776 631.839 336.64 631.948 337.752H629.897C629.847 337.109 629.667 336.645 629.357 336.357C629.052 336.066 628.585 335.92 627.956 335.92C627.272 335.92 626.76 336.166 626.418 336.658C626.081 337.146 625.908 337.905 625.898 338.935V339.687C625.898 340.762 626.06 341.548 626.384 342.045C626.712 342.542 627.227 342.79 627.929 342.79C628.562 342.79 629.034 342.646 629.344 342.359C629.658 342.068 629.838 341.619 629.884 341.013H631.935ZM640.753 344.328H638.771V341.484H636.317V344.328H634.341V336.932H636.317V339.898H638.771V336.932H640.753V344.328ZM646.879 344.465C645.794 344.465 644.91 344.132 644.227 343.467C643.548 342.801 643.208 341.915 643.208 340.808V340.616C643.208 339.873 643.352 339.21 643.639 338.627C643.926 338.039 644.331 337.588 644.856 337.273C645.384 336.954 645.986 336.795 646.66 336.795C647.672 336.795 648.467 337.114 649.046 337.752C649.629 338.39 649.921 339.295 649.921 340.466V341.272H645.211C645.275 341.756 645.466 342.143 645.785 342.435C646.109 342.726 646.517 342.872 647.009 342.872C647.77 342.872 648.365 342.596 648.793 342.045L649.764 343.132C649.468 343.551 649.067 343.879 648.561 344.116C648.055 344.349 647.494 344.465 646.879 344.465ZM646.653 338.395C646.262 338.395 645.943 338.527 645.696 338.791C645.455 339.055 645.3 339.434 645.232 339.926H647.98V339.769C647.97 339.331 647.852 338.994 647.624 338.757C647.396 338.515 647.073 338.395 646.653 338.395ZM659.355 341.587H658.46V344.328H656.484V341.587H655.602L654.132 344.328H651.747L654.078 340.459L651.774 336.932H654.221L655.759 339.693H656.484V336.932H658.46V339.693H659.198L660.743 336.932H663.19L660.9 340.411L663.252 344.328H660.825L659.355 341.587ZM671.804 344.328H669.822V341.484H667.367V344.328H665.392V336.932H667.367V339.898H669.822V336.932H671.804V344.328ZM674.218 340.562C674.218 339.828 674.359 339.174 674.641 338.6C674.924 338.025 675.33 337.581 675.858 337.267C676.391 336.952 677.009 336.795 677.711 336.795C678.709 336.795 679.522 337.1 680.151 337.711C680.785 338.322 681.138 339.151 681.211 340.199L681.224 340.705C681.224 341.84 680.908 342.751 680.274 343.439C679.641 344.123 678.791 344.465 677.724 344.465C676.658 344.465 675.806 344.123 675.168 343.439C674.534 342.756 674.218 341.826 674.218 340.65V340.562ZM676.193 340.705C676.193 341.407 676.325 341.945 676.59 342.318C676.854 342.688 677.232 342.872 677.724 342.872C678.203 342.872 678.577 342.69 678.846 342.325C679.114 341.956 679.249 341.368 679.249 340.562C679.249 339.873 679.114 339.34 678.846 338.962C678.577 338.584 678.198 338.395 677.711 338.395C677.228 338.395 676.854 338.584 676.59 338.962C676.325 339.336 676.193 339.917 676.193 340.705ZM687.036 344.465C685.951 344.465 685.067 344.132 684.383 343.467C683.704 342.801 683.365 341.915 683.365 340.808V340.616C683.365 339.873 683.508 339.21 683.795 338.627C684.082 338.039 684.488 337.588 685.012 337.273C685.541 336.954 686.142 336.795 686.817 336.795C687.828 336.795 688.624 337.114 689.202 337.752C689.786 338.39 690.077 339.295 690.077 340.466V341.272H685.368C685.431 341.756 685.623 342.143 685.942 342.435C686.265 342.726 686.673 342.872 687.165 342.872C687.926 342.872 688.521 342.596 688.95 342.045L689.92 343.132C689.624 343.551 689.223 343.879 688.717 344.116C688.211 344.349 687.651 344.465 687.036 344.465ZM686.81 338.395C686.418 338.395 686.099 338.527 685.853 338.791C685.611 339.055 685.456 339.434 685.388 339.926H688.136V339.769C688.127 339.331 688.008 338.994 687.781 338.757C687.553 338.515 687.229 338.395 686.81 338.395Z" fill="#125A7E"/>
<circle cx="657.233" cy="362.339" r="4.01055" stroke="#125A7E" stroke-width="2"/>
<path d="M518.699 203.864L521.256 211.083L523.799 203.864H526.492V213.817H524.435V211.097L524.64 206.4L521.953 213.817H520.545L517.865 206.407L518.07 211.097V213.817H516.02V203.864H518.699ZM529.036 210.051C529.036 209.317 529.177 208.663 529.46 208.089C529.742 207.515 530.148 207.07 530.676 206.756C531.21 206.441 531.827 206.284 532.529 206.284C533.527 206.284 534.34 206.59 534.969 207.2C535.603 207.811 535.956 208.64 536.029 209.688L536.043 210.194C536.043 211.329 535.726 212.241 535.092 212.929C534.459 213.612 533.609 213.954 532.543 213.954C531.476 213.954 530.624 213.612 529.986 212.929C529.352 212.245 529.036 211.315 529.036 210.14V210.051ZM531.011 210.194C531.011 210.896 531.143 211.434 531.408 211.808C531.672 212.177 532.05 212.361 532.543 212.361C533.021 212.361 533.395 212.179 533.664 211.814C533.933 211.445 534.067 210.857 534.067 210.051C534.067 209.363 533.933 208.829 533.664 208.451C533.395 208.073 533.016 207.884 532.529 207.884C532.046 207.884 531.672 208.073 531.408 208.451C531.143 208.825 531.011 209.406 531.011 210.194ZM544.773 206.421V213.817H542.797V208.021H541.054L540.931 210.304C540.853 211.521 540.614 212.407 540.213 212.963C539.812 213.519 539.215 213.804 538.422 213.817H537.752L537.732 212.211L537.978 212.19C538.333 212.163 538.593 211.953 538.757 211.562C538.921 211.17 539.024 210.502 539.065 209.559L539.201 206.421H544.773ZM553.721 213.817H551.746V211.493C551.377 211.562 551.033 211.596 550.714 211.596C549.597 211.596 548.756 211.359 548.191 210.885C547.626 210.411 547.339 209.718 547.33 208.807V206.421H549.305V208.807C549.31 209.235 549.415 209.543 549.62 209.729C549.825 209.912 550.189 210.003 550.714 210.003C551.042 210.003 551.386 209.964 551.746 209.887V206.421H553.721V213.817ZM560.715 213.817C560.624 213.64 560.558 213.419 560.517 213.154C560.038 213.688 559.416 213.954 558.651 213.954C557.926 213.954 557.324 213.744 556.846 213.325C556.372 212.906 556.135 212.377 556.135 211.739C556.135 210.955 556.424 210.354 557.003 209.935C557.586 209.515 558.427 209.303 559.526 209.299H560.435V208.875C560.435 208.533 560.346 208.26 560.168 208.055C559.995 207.85 559.719 207.747 559.341 207.747C559.008 207.747 558.746 207.827 558.555 207.986C558.368 208.146 558.275 208.365 558.275 208.643H556.299C556.299 208.214 556.431 207.818 556.696 207.453C556.96 207.089 557.334 206.804 557.817 206.599C558.3 206.389 558.842 206.284 559.444 206.284C560.355 206.284 561.077 206.514 561.611 206.975C562.148 207.43 562.417 208.073 562.417 208.902V212.108C562.422 212.81 562.52 213.341 562.711 213.701V213.817H560.715ZM559.081 212.443C559.373 212.443 559.642 212.38 559.888 212.252C560.134 212.12 560.316 211.944 560.435 211.726V210.454H559.697C558.708 210.454 558.181 210.796 558.117 211.479L558.111 211.596C558.111 211.842 558.197 212.045 558.37 212.204C558.544 212.364 558.781 212.443 559.081 212.443ZM571.557 206.421V213.817H569.582V208.021H567.839L567.716 210.304C567.638 211.521 567.399 212.407 566.998 212.963C566.597 213.519 566 213.804 565.207 213.817H564.537L564.516 212.211L564.763 212.19C565.118 212.163 565.378 211.953 565.542 211.562C565.706 211.17 565.808 210.502 565.849 209.559L565.986 206.421H571.557ZM578.729 206.421H580.704V213.817H578.729V209.251L576.254 213.817H574.272V206.421H576.254V210.98L578.729 206.421ZM589.817 213.817H587.835V210.974H585.381V213.817H583.405V206.421H585.381V209.388H587.835V206.421H589.817V213.817ZM592.231 210.051C592.231 209.317 592.372 208.663 592.655 208.089C592.937 207.515 593.343 207.07 593.872 206.756C594.405 206.441 595.022 206.284 595.724 206.284C596.722 206.284 597.536 206.59 598.165 207.2C598.798 207.811 599.151 208.64 599.224 209.688L599.238 210.194C599.238 211.329 598.921 212.241 598.288 212.929C597.654 213.612 596.804 213.954 595.738 213.954C594.671 213.954 593.819 213.612 593.181 212.929C592.548 212.245 592.231 211.315 592.231 210.14V210.051ZM594.207 210.194C594.207 210.896 594.339 211.434 594.603 211.808C594.867 212.177 595.246 212.361 595.738 212.361C596.216 212.361 596.59 212.179 596.859 211.814C597.128 211.445 597.262 210.857 597.262 210.051C597.262 209.363 597.128 208.829 596.859 208.451C596.59 208.073 596.212 207.884 595.724 207.884C595.241 207.884 594.867 208.073 594.603 208.451C594.339 208.825 594.207 209.406 594.207 210.194Z" fill="#125A7E"/>
<circle cx="557.632" cy="231.828" r="4.01055" stroke="#125A7E" stroke-width="2"/>
<path d="M506.063 103.36C505.986 104.431 505.59 105.274 504.874 105.889C504.163 106.504 503.224 106.812 502.058 106.812C500.782 106.812 499.777 106.384 499.043 105.527C498.314 104.666 497.949 103.485 497.949 101.986V101.377C497.949 100.42 498.118 99.5773 498.455 98.8481C498.792 98.119 499.273 97.5607 499.897 97.1733C500.526 96.7814 501.256 96.5854 502.085 96.5854C503.233 96.5854 504.159 96.8931 504.86 97.5083C505.562 98.1235 505.968 98.9871 506.077 100.099H504.026C503.976 99.4565 503.796 98.9917 503.486 98.7046C503.181 98.4129 502.714 98.2671 502.085 98.2671C501.401 98.2671 500.889 98.5132 500.547 99.0054C500.21 99.493 500.036 100.252 500.027 101.282V102.034C500.027 103.109 500.189 103.895 500.513 104.392C500.841 104.889 501.356 105.137 502.058 105.137C502.691 105.137 503.163 104.994 503.473 104.707C503.787 104.415 503.967 103.966 504.013 103.36H506.063ZM511.875 106.812C510.79 106.812 509.906 106.479 509.222 105.814C508.543 105.149 508.204 104.262 508.204 103.155V102.963C508.204 102.221 508.347 101.557 508.634 100.974C508.921 100.386 509.327 99.9351 509.851 99.6206C510.38 99.3016 510.981 99.1421 511.656 99.1421C512.668 99.1421 513.463 99.4611 514.042 100.099C514.625 100.737 514.917 101.642 514.917 102.813V103.62H510.207C510.27 104.103 510.462 104.49 510.781 104.782C511.104 105.073 511.512 105.219 512.004 105.219C512.766 105.219 513.36 104.944 513.789 104.392L514.759 105.479C514.463 105.898 514.062 106.226 513.556 106.463C513.05 106.696 512.49 106.812 511.875 106.812ZM511.649 100.742C511.257 100.742 510.938 100.874 510.692 101.138C510.45 101.403 510.295 101.781 510.227 102.273H512.975V102.116C512.966 101.678 512.848 101.341 512.62 101.104C512.392 100.862 512.068 100.742 511.649 100.742ZM517.364 106.675V99.2788H520.454C521.461 99.2788 522.234 99.4565 522.772 99.812C523.309 100.167 523.578 100.678 523.578 101.343C523.578 101.685 523.464 101.993 523.236 102.266C523.013 102.535 522.685 102.742 522.252 102.888C522.781 102.988 523.195 103.187 523.496 103.483C523.802 103.775 523.954 104.135 523.954 104.563C523.954 105.251 523.694 105.775 523.175 106.135C522.66 106.495 521.91 106.675 520.926 106.675H517.364ZM519.34 103.606V105.096H520.933C521.63 105.096 521.979 104.852 521.979 104.365C521.979 103.868 521.646 103.615 520.981 103.606H519.34ZM519.34 102.28H520.564C521.256 102.271 521.603 102.047 521.603 101.61C521.603 101.341 521.507 101.15 521.316 101.036C521.129 100.922 520.842 100.865 520.454 100.865H519.34V102.28ZM529.758 106.812C528.674 106.812 527.79 106.479 527.106 105.814C526.427 105.149 526.088 104.262 526.088 103.155V102.963C526.088 102.221 526.231 101.557 526.518 100.974C526.805 100.386 527.211 99.9351 527.735 99.6206C528.264 99.3016 528.865 99.1421 529.54 99.1421C530.551 99.1421 531.347 99.4611 531.925 100.099C532.509 100.737 532.8 101.642 532.8 102.813V103.62H528.091C528.154 104.103 528.346 104.49 528.665 104.782C528.988 105.073 529.396 105.219 529.888 105.219C530.649 105.219 531.244 104.944 531.673 104.392L532.643 105.479C532.347 105.898 531.946 106.226 531.44 106.463C530.934 106.696 530.374 106.812 529.758 106.812ZM529.533 100.742C529.141 100.742 528.822 100.874 528.576 101.138C528.334 101.403 528.179 101.781 528.111 102.273H530.859V102.116C530.85 101.678 530.731 101.341 530.504 101.104C530.276 100.862 529.952 100.742 529.533 100.742ZM541.777 103.045C541.777 104.185 541.517 105.098 540.997 105.787C540.482 106.47 539.785 106.812 538.906 106.812C538.158 106.812 537.554 106.552 537.094 106.033V109.519H535.118V99.2788H536.95L537.019 100.003C537.497 99.4292 538.122 99.1421 538.892 99.1421C539.803 99.1421 540.512 99.4793 541.018 100.154C541.524 100.828 541.777 101.758 541.777 102.943V103.045ZM539.801 102.902C539.801 102.214 539.678 101.683 539.432 101.309C539.19 100.935 538.837 100.749 538.372 100.749C537.753 100.749 537.326 100.986 537.094 101.459V104.488C537.336 104.975 537.766 105.219 538.386 105.219C539.329 105.219 539.801 104.447 539.801 102.902ZM550.609 106.675H548.627V103.832H546.173V106.675H544.197V99.2788H546.173V102.246H548.627V99.2788H550.609V106.675ZM553.023 102.909C553.023 102.175 553.164 101.521 553.447 100.947C553.729 100.373 554.135 99.9282 554.663 99.6138C555.197 99.2993 555.814 99.1421 556.516 99.1421C557.514 99.1421 558.327 99.4474 558.956 100.058C559.59 100.669 559.943 101.498 560.016 102.546L560.03 103.052C560.03 104.187 559.713 105.098 559.079 105.787C558.446 106.47 557.596 106.812 556.53 106.812C555.463 106.812 554.611 106.47 553.973 105.787C553.34 105.103 553.023 104.173 553.023 102.998V102.909ZM554.998 103.052C554.998 103.754 555.131 104.292 555.395 104.666C555.659 105.035 556.037 105.219 556.53 105.219C557.008 105.219 557.382 105.037 557.651 104.672C557.92 104.303 558.054 103.715 558.054 102.909C558.054 102.221 557.92 101.687 557.651 101.309C557.382 100.931 557.004 100.742 556.516 100.742C556.033 100.742 555.659 100.931 555.395 101.309C555.131 101.683 554.998 102.264 554.998 103.052ZM565.841 106.812C564.756 106.812 563.872 106.479 563.188 105.814C562.509 105.149 562.17 104.262 562.17 103.155V102.963C562.17 102.221 562.313 101.557 562.601 100.974C562.888 100.386 563.293 99.9351 563.817 99.6206C564.346 99.3016 564.948 99.1421 565.622 99.1421C566.634 99.1421 567.429 99.4611 568.008 100.099C568.591 100.737 568.883 101.642 568.883 102.813V103.62H564.173C564.237 104.103 564.428 104.49 564.747 104.782C565.071 105.073 565.478 105.219 565.971 105.219C566.732 105.219 567.326 104.944 567.755 104.392L568.726 105.479C568.429 105.898 568.028 106.226 567.522 106.463C567.017 106.696 566.456 106.812 565.841 106.812ZM565.615 100.742C565.223 100.742 564.904 100.874 564.658 101.138C564.417 101.403 564.262 101.781 564.193 102.273H566.941V102.116C566.932 101.678 566.814 101.341 566.586 101.104C566.358 100.862 566.034 100.742 565.615 100.742Z" fill="#125A7E"/>
<circle cx="533.36" cy="124.686" r="4.01055" stroke="#125A7E" stroke-width="2"/>
<path d="M256.115 68.1372H254.058V59.8452H250.072V68.1372H248.021V58.1841H256.115V68.1372ZM263.266 68.1372C263.175 67.9595 263.109 67.7384 263.068 67.4741C262.589 68.0073 261.967 68.2739 261.202 68.2739C260.477 68.2739 259.876 68.0643 259.397 67.645C258.923 67.2257 258.686 66.6971 258.686 66.0591C258.686 65.2752 258.975 64.6737 259.554 64.2544C260.138 63.8351 260.978 63.6232 262.077 63.6187H262.986V63.1948C262.986 62.853 262.897 62.5796 262.719 62.3745C262.546 62.1694 262.27 62.0669 261.892 62.0669C261.559 62.0669 261.297 62.1466 261.106 62.3062C260.919 62.4657 260.826 62.6844 260.826 62.9624H258.85C258.85 62.534 258.982 62.1375 259.247 61.7729C259.511 61.4084 259.885 61.1235 260.368 60.9185C260.851 60.7088 261.393 60.604 261.995 60.604C262.906 60.604 263.628 60.8341 264.162 61.2944C264.699 61.7502 264.968 62.3927 264.968 63.2222V66.4282C264.973 67.13 265.071 67.661 265.262 68.021V68.1372H263.266ZM261.632 66.7632C261.924 66.7632 262.193 66.6994 262.439 66.5718C262.685 66.4396 262.867 66.2642 262.986 66.0454V64.7739H262.248C261.259 64.7739 260.732 65.1157 260.669 65.7993L260.662 65.9155C260.662 66.1616 260.748 66.3644 260.921 66.5239C261.095 66.6834 261.332 66.7632 261.632 66.7632ZM274.109 60.7407V68.1372H272.133V62.3403H270.39L270.267 64.6235C270.189 65.8403 269.95 66.7267 269.549 67.2827C269.148 67.8387 268.551 68.1235 267.758 68.1372H267.088L267.068 66.5308L267.314 66.5103C267.669 66.4829 267.929 66.2733 268.093 65.8813C268.257 65.4894 268.359 64.8218 268.401 63.8784L268.537 60.7407H274.109ZM281.109 68.1372C281.018 67.9595 280.952 67.7384 280.911 67.4741C280.432 68.0073 279.81 68.2739 279.045 68.2739C278.32 68.2739 277.718 68.0643 277.24 67.645C276.766 67.2257 276.529 66.6971 276.529 66.0591C276.529 65.2752 276.818 64.6737 277.397 64.2544C277.98 63.8351 278.821 63.6232 279.92 63.6187H280.829V63.1948C280.829 62.853 280.74 62.5796 280.562 62.3745C280.389 62.1694 280.113 62.0669 279.735 62.0669C279.402 62.0669 279.14 62.1466 278.949 62.3062C278.762 62.4657 278.669 62.6844 278.669 62.9624H276.693C276.693 62.534 276.825 62.1375 277.09 61.7729C277.354 61.4084 277.728 61.1235 278.211 60.9185C278.694 60.7088 279.236 60.604 279.838 60.604C280.749 60.604 281.471 60.8341 282.005 61.2944C282.542 61.7502 282.811 62.3927 282.811 63.2222V66.4282C282.816 67.13 282.914 67.661 283.105 68.021V68.1372H281.109ZM279.475 66.7632C279.767 66.7632 280.036 66.6994 280.282 66.5718C280.528 66.4396 280.71 66.2642 280.829 66.0454V64.7739H280.091C279.102 64.7739 278.575 65.1157 278.511 65.7993L278.505 65.9155C278.505 66.1616 278.591 66.3644 278.764 66.5239C278.938 66.6834 279.174 66.7632 279.475 66.7632ZM290.557 62.3403H287.494V68.1372H285.519V60.7407H290.557V62.3403ZM295.842 68.2739C294.757 68.2739 293.873 67.9412 293.189 67.2759C292.51 66.6105 292.171 65.7241 292.171 64.6167V64.4253C292.171 63.6825 292.314 63.0194 292.601 62.436C292.888 61.8481 293.294 61.397 293.818 61.0825C294.347 60.7635 294.948 60.604 295.623 60.604C296.635 60.604 297.43 60.923 298.009 61.561C298.592 62.1991 298.884 63.1037 298.884 64.2749V65.0815H294.174C294.237 65.5646 294.429 65.952 294.748 66.2437C295.071 66.5353 295.479 66.6812 295.971 66.6812C296.733 66.6812 297.327 66.4054 297.756 65.854L298.726 66.9409C298.43 67.3602 298.029 67.6883 297.523 67.9253C297.017 68.1577 296.457 68.2739 295.842 68.2739ZM295.616 62.2036C295.224 62.2036 294.905 62.3358 294.659 62.6001C294.417 62.8644 294.263 63.2427 294.194 63.7349H296.942V63.5776C296.933 63.1401 296.815 62.8029 296.587 62.5659C296.359 62.3244 296.035 62.2036 295.616 62.2036ZM304.606 68.2739C303.521 68.2739 302.637 67.9412 301.953 67.2759C301.274 66.6105 300.935 65.7241 300.935 64.6167V64.4253C300.935 63.6825 301.078 63.0194 301.366 62.436C301.653 61.8481 302.058 61.397 302.582 61.0825C303.111 60.7635 303.713 60.604 304.387 60.604C305.399 60.604 306.194 60.923 306.773 61.561C307.356 62.1991 307.648 63.1037 307.648 64.2749V65.0815H302.938C303.002 65.5646 303.193 65.952 303.512 66.2437C303.836 66.5353 304.244 66.6812 304.736 66.6812C305.497 66.6812 306.091 66.4054 306.52 65.854L307.491 66.9409C307.194 67.3602 306.793 67.6883 306.287 67.9253C305.782 68.1577 305.221 68.2739 304.606 68.2739ZM304.38 62.2036C303.988 62.2036 303.669 62.3358 303.423 62.6001C303.182 62.8644 303.027 63.2427 302.958 63.7349H305.706V63.5776C305.697 63.1401 305.579 62.8029 305.351 62.5659C305.123 62.3244 304.8 62.2036 304.38 62.2036ZM310.096 68.1372V60.7407H313.185C314.193 60.7407 314.965 60.9185 315.503 61.2739C316.041 61.6294 316.309 62.1398 316.309 62.8052C316.309 63.147 316.196 63.4546 315.968 63.728C315.744 63.9969 315.416 64.2043 314.983 64.3501C315.512 64.4504 315.927 64.6486 316.227 64.9448C316.533 65.2365 316.685 65.5965 316.685 66.0249C316.685 66.7131 316.426 67.2371 315.906 67.5972C315.391 67.9572 314.642 68.1372 313.657 68.1372H310.096ZM312.071 65.0679V66.5581H313.664C314.361 66.5581 314.71 66.3143 314.71 65.8267C314.71 65.3299 314.377 65.077 313.712 65.0679H312.071ZM312.071 63.7417H313.295C313.988 63.7326 314.334 63.5093 314.334 63.0718C314.334 62.8029 314.238 62.6115 314.047 62.4976C313.86 62.3836 313.573 62.3267 313.185 62.3267H312.071V63.7417ZM321.984 65.4097H321.191V68.1372H319.215V60.7407H321.191V63.5229H321.895L323.508 60.7407H326.003L323.583 64.2612L326.229 68.1372H323.597L321.984 65.4097ZM332.45 68.1372C332.359 67.9595 332.293 67.7384 332.252 67.4741C331.773 68.0073 331.151 68.2739 330.386 68.2739C329.661 68.2739 329.06 68.0643 328.581 67.645C328.107 67.2257 327.87 66.6971 327.87 66.0591C327.87 65.2752 328.16 64.6737 328.738 64.2544C329.322 63.8351 330.162 63.6232 331.261 63.6187H332.17V63.1948C332.17 62.853 332.081 62.5796 331.903 62.3745C331.73 62.1694 331.454 62.0669 331.076 62.0669C330.744 62.0669 330.481 62.1466 330.29 62.3062C330.103 62.4657 330.01 62.6844 330.01 62.9624H328.034C328.034 62.534 328.166 62.1375 328.431 61.7729C328.695 61.4084 329.069 61.1235 329.552 60.9185C330.035 60.7088 330.577 60.604 331.179 60.604C332.09 60.604 332.813 60.8341 333.346 61.2944C333.884 61.7502 334.152 62.3927 334.152 63.2222V66.4282C334.157 67.13 334.255 67.661 334.446 68.021V68.1372H332.45ZM330.816 66.7632C331.108 66.7632 331.377 66.6994 331.623 66.5718C331.869 66.4396 332.051 66.2642 332.17 66.0454V64.7739H331.432C330.443 64.7739 329.916 65.1157 329.853 65.7993L329.846 65.9155C329.846 66.1616 329.932 66.3644 330.106 66.5239C330.279 66.6834 330.516 66.7632 330.816 66.7632Z" fill="#125A7E"/>
<circle cx="291.12" cy="86.1478" r="4.01055" stroke="#125A7E" stroke-width="2"/>
<path d="M144.075 273.641H139.611V281.933H137.561V271.979H144.075V273.641ZM145.053 278.166C145.053 277.432 145.195 276.778 145.477 276.204C145.76 275.63 146.165 275.186 146.694 274.871C147.227 274.557 147.845 274.399 148.546 274.399C149.544 274.399 150.358 274.705 150.987 275.315C151.62 275.926 151.974 276.756 152.046 277.804L152.06 278.31C152.06 279.444 151.743 280.356 151.11 281.044C150.476 281.728 149.627 282.069 148.56 282.069C147.494 282.069 146.641 281.728 146.003 281.044C145.37 280.36 145.053 279.431 145.053 278.255V278.166ZM147.029 278.31C147.029 279.011 147.161 279.549 147.425 279.923C147.69 280.292 148.068 280.477 148.56 280.477C149.039 280.477 149.412 280.294 149.681 279.93C149.95 279.561 150.085 278.973 150.085 278.166C150.085 277.478 149.95 276.945 149.681 276.566C149.412 276.188 149.034 275.999 148.546 275.999C148.063 275.999 147.69 276.188 147.425 276.566C147.161 276.94 147.029 277.521 147.029 278.31ZM161.125 278.303C161.125 279.442 160.865 280.356 160.346 281.044C159.831 281.728 159.134 282.069 158.254 282.069C157.507 282.069 156.903 281.81 156.443 281.29V284.776H154.467V274.536H156.299L156.367 275.261C156.846 274.687 157.47 274.399 158.24 274.399C159.152 274.399 159.86 274.737 160.366 275.411C160.872 276.086 161.125 277.015 161.125 278.2V278.303ZM159.15 278.159C159.15 277.471 159.026 276.94 158.78 276.566C158.539 276.193 158.186 276.006 157.721 276.006C157.101 276.006 156.675 276.243 156.443 276.717V279.745C156.684 280.233 157.115 280.477 157.734 280.477C158.678 280.477 159.15 279.704 159.15 278.159ZM169.958 281.933H167.975V279.089H165.521V281.933H163.546V274.536H165.521V277.503H167.975V274.536H169.958V281.933ZM172.371 278.166C172.371 277.432 172.513 276.778 172.795 276.204C173.078 275.63 173.483 275.186 174.012 274.871C174.545 274.557 175.163 274.399 175.864 274.399C176.863 274.399 177.676 274.705 178.305 275.315C178.938 275.926 179.292 276.756 179.364 277.804L179.378 278.31C179.378 279.444 179.061 280.356 178.428 281.044C177.795 281.728 176.945 282.069 175.878 282.069C174.812 282.069 173.96 281.728 173.322 281.044C172.688 280.36 172.371 279.431 172.371 278.255V278.166ZM174.347 278.31C174.347 279.011 174.479 279.549 174.743 279.923C175.008 280.292 175.386 280.477 175.878 280.477C176.357 280.477 176.73 280.294 176.999 279.93C177.268 279.561 177.403 278.973 177.403 278.166C177.403 277.478 177.268 276.945 176.999 276.566C176.73 276.188 176.352 275.999 175.864 275.999C175.381 275.999 175.008 276.188 174.743 276.566C174.479 276.94 174.347 277.521 174.347 278.31ZM185.189 282.069C184.105 282.069 183.221 281.737 182.537 281.071C181.858 280.406 181.518 279.52 181.518 278.412V278.221C181.518 277.478 181.662 276.815 181.949 276.231C182.236 275.644 182.642 275.192 183.166 274.878C183.694 274.559 184.296 274.399 184.971 274.399C185.982 274.399 186.777 274.718 187.356 275.356C187.94 275.994 188.231 276.899 188.231 278.07V278.877H183.521C183.585 279.36 183.776 279.747 184.096 280.039C184.419 280.331 184.827 280.477 185.319 280.477C186.08 280.477 186.675 280.201 187.103 279.649L188.074 280.736C187.778 281.156 187.377 281.484 186.871 281.721C186.365 281.953 185.804 282.069 185.189 282.069ZM184.964 275.999C184.572 275.999 184.253 276.131 184.007 276.396C183.765 276.66 183.61 277.038 183.542 277.53H186.29V277.373C186.281 276.936 186.162 276.598 185.934 276.361C185.707 276.12 185.383 275.999 184.964 275.999Z" fill="#125A7E"/>
<circle cx="162.657" cy="299.943" r="4.01055" stroke="#125A7E" stroke-width="2"/>
<path d="M303.453 282.834H296.92V300.603H292.525V282.834H286.08V279.275H303.453V282.834ZM304.538 292.532C304.538 290.959 304.841 289.558 305.446 288.328C306.052 287.097 306.921 286.145 308.054 285.471C309.196 284.797 310.52 284.46 312.024 284.46C314.162 284.46 315.905 285.115 317.253 286.423C318.611 287.732 319.367 289.509 319.524 291.755L319.553 292.839C319.553 295.271 318.874 297.224 317.517 298.699C316.159 300.164 314.338 300.896 312.053 300.896C309.768 300.896 307.942 300.164 306.574 298.699C305.217 297.234 304.538 295.242 304.538 292.722V292.532ZM308.772 292.839C308.772 294.343 309.055 295.496 309.621 296.296C310.188 297.087 310.998 297.483 312.053 297.483C313.078 297.483 313.879 297.092 314.455 296.311C315.031 295.52 315.32 294.26 315.32 292.532C315.32 291.057 315.031 289.915 314.455 289.104C313.879 288.293 313.069 287.888 312.024 287.888C310.988 287.888 310.188 288.293 309.621 289.104C309.055 289.905 308.772 291.15 308.772 292.839ZM338.978 292.825C338.978 295.266 338.421 297.224 337.308 298.699C336.204 300.164 334.71 300.896 332.826 300.896C331.224 300.896 329.93 300.339 328.944 299.226V306.697H324.71V284.753H328.636L328.783 286.306C329.808 285.076 331.146 284.46 332.796 284.46C334.749 284.46 336.268 285.183 337.352 286.628C338.436 288.074 338.978 290.066 338.978 292.605V292.825ZM334.745 292.517C334.745 291.042 334.481 289.905 333.954 289.104C333.436 288.303 332.679 287.903 331.683 287.903C330.355 287.903 329.442 288.411 328.944 289.426V295.916C329.461 296.96 330.384 297.483 331.712 297.483C333.734 297.483 334.745 295.828 334.745 292.517ZM351.46 300.896C349.135 300.896 347.241 300.183 345.776 298.757C344.321 297.332 343.593 295.432 343.593 293.059V292.649C343.593 291.057 343.901 289.636 344.516 288.386C345.131 287.126 346.001 286.16 347.124 285.486C348.256 284.802 349.546 284.46 350.991 284.46C353.159 284.46 354.863 285.144 356.103 286.511C357.353 287.878 357.978 289.817 357.978 292.327V294.055H347.885C348.022 295.09 348.432 295.92 349.116 296.545C349.809 297.17 350.683 297.483 351.738 297.483C353.369 297.483 354.643 296.892 355.561 295.71L357.641 298.04C357.006 298.938 356.147 299.641 355.063 300.149C353.979 300.647 352.778 300.896 351.46 300.896ZM350.976 287.888C350.136 287.888 349.453 288.171 348.925 288.738C348.408 289.304 348.076 290.115 347.929 291.169H353.818V290.833C353.798 289.895 353.545 289.172 353.056 288.665C352.568 288.147 351.875 287.888 350.976 287.888ZM371.265 289.426C371.265 288.87 371.08 288.44 370.709 288.137C370.347 287.825 369.83 287.668 369.156 287.668C368.463 287.668 367.896 287.815 367.457 288.108C367.027 288.391 366.812 288.796 366.812 289.324H362.579C362.579 287.888 363.175 286.721 364.366 285.823C365.557 284.924 367.081 284.475 368.936 284.475C370.977 284.475 372.579 284.875 373.741 285.676C374.913 286.477 375.499 287.615 375.499 289.089C375.499 289.792 375.284 290.442 374.854 291.038C374.434 291.624 373.839 292.092 373.067 292.444C374.874 293.079 375.777 294.304 375.777 296.121C375.777 297.576 375.152 298.738 373.902 299.607C372.662 300.466 371.007 300.896 368.936 300.896C367.012 300.896 365.43 300.447 364.19 299.548C362.95 298.65 362.33 297.439 362.33 295.916H366.563C366.563 296.453 366.803 296.887 367.281 297.219C367.76 297.551 368.385 297.717 369.156 297.717C369.908 297.717 370.494 297.542 370.914 297.19C371.334 296.838 371.544 296.379 371.544 295.813C371.544 295.12 371.344 294.626 370.943 294.333C370.543 294.031 369.942 293.879 369.141 293.879H366.842V291.125H369.288C370.606 291.086 371.265 290.52 371.265 289.426Z" fill="#125A7E"/>
<circle cx="331.494" cy="330.613" r="8.01" fill="#125A7E"/>
</svg>
