<svg width="26" height="11" viewBox="0 0 26 11" fill="none" xmlns="http://www.w3.org/2000/svg">
<path d="M9.98559 0H5.66992C4.21123 2.17362e-08 2.81228 0.579463 1.78083 1.61091C0.749384 2.64236 0.169922 4.04131 0.169922 5.5C0.169922 6.95869 0.749384 8.35764 1.78083 9.38909C2.81228 10.4205 4.21123 11 5.66992 11H11.1699C12.0501 11.0005 12.9175 10.7897 13.6992 10.3854C14.481 9.98111 15.1544 9.3951 15.6627 8.6766C16.171 7.95811 16.4995 7.12811 16.6206 6.25633C16.7416 5.38456 16.6516 4.49647 16.3583 3.66667H14.8366C14.6789 3.66667 14.5249 3.685 14.3783 3.7235C14.6874 4.28176 14.8456 4.91105 14.837 5.54916C14.8285 6.18727 14.6535 6.81209 14.3295 7.36186C14.0054 7.91163 13.5435 8.36731 12.9894 8.68384C12.4352 9.00037 11.8081 9.1668 11.1699 9.16667H5.66992C4.69746 9.16667 3.76483 8.78036 3.0772 8.09272C2.38956 7.40509 2.00326 6.47246 2.00326 5.5C2.00326 4.52754 2.38956 3.59491 3.0772 2.90727C3.76483 2.21964 4.69746 1.83333 5.66992 1.83333H8.48409C8.88375 1.144 9.39159 0.524333 9.98742 0H9.98559Z" fill="#428BAF"/>
<path d="M14.831 7.56216e-07C13.9509 -0.000460735 13.0835 0.210308 12.3017 0.6146C11.5199 1.01889 10.8466 1.6049 10.3382 2.3234C9.82989 3.04189 9.50141 3.87189 9.38038 4.74367C9.25935 5.61544 9.3493 6.50353 9.64268 7.33333H11.6557C11.3339 6.77594 11.1644 6.14365 11.1644 5.50002C11.1644 4.8564 11.3338 4.22411 11.6557 3.66671C11.9775 3.10931 12.4403 2.64643 12.9977 2.32461C13.5551 2.00278 14.1874 1.83335 14.831 1.83333H20.331C21.3035 1.83333 22.2361 2.21964 22.9237 2.90728C23.6114 3.59491 23.9977 4.52754 23.9977 5.5C23.9977 6.47246 23.6114 7.40509 22.9237 8.09272C22.2361 8.78036 21.3035 9.16667 20.331 9.16667H17.5168C17.118 9.8549 16.6103 10.474 16.0135 11H20.331C21.0533 11 21.7685 10.8577 22.4358 10.5813C23.1031 10.3049 23.7094 9.89981 24.2201 9.38909C24.7308 8.87837 25.1359 8.27205 25.4123 7.60476C25.6887 6.93747 25.831 6.22227 25.831 5.5C25.831 4.77773 25.6887 4.06253 25.4123 3.39524C25.1359 2.72795 24.7308 2.12164 24.2201 1.61091C23.7094 1.10019 23.1031 0.695064 22.4358 0.418664C21.7685 0.142263 21.0533 7.45454e-07 20.331 7.56216e-07H14.831Z" fill="#428BAF"/>
</svg>
