<svg width="88" height="65" viewBox="0 0 88 65" fill="none" xmlns="http://www.w3.org/2000/svg">
<path fill-rule="evenodd" clip-rule="evenodd" d="M81.916 65C81.916 65 87.3327 65 87.3327 59.5833C87.3327 54.1667 81.916 37.9167 60.2493 37.9167C38.5827 37.9167 33.166 54.1667 33.166 59.5833C33.166 65 38.5827 65 38.5827 65H81.916ZM38.6098 59.8867V59.8758V59.8867ZM38.7018 59.5833H81.7968C81.8222 59.5804 81.8475 59.5768 81.8727 59.5725L81.916 59.5617C81.9052 58.1317 81.0114 53.9825 77.7993 50.245C74.8093 46.7404 69.5552 43.3333 60.2493 43.3333C50.9489 43.3333 45.6948 46.7458 42.6993 50.245C39.4873 53.9825 38.5881 58.1371 38.5827 59.5617C38.6223 59.5693 38.662 59.5765 38.7018 59.5833ZM81.8889 59.8867V59.8758V59.8867ZM60.2493 27.0833C63.1225 27.0833 65.878 25.942 67.9097 23.9103C69.9413 21.8787 71.0827 19.1232 71.0827 16.25C71.0827 13.3768 69.9413 10.6213 67.9097 8.58968C65.878 6.55803 63.1225 5.41667 60.2493 5.41667C57.3762 5.41667 54.6207 6.55803 52.589 8.58968C50.5574 10.6213 49.416 13.3768 49.416 16.25C49.416 19.1232 50.5574 21.8787 52.589 23.9103C54.6207 25.942 57.3762 27.0833 60.2493 27.0833ZM76.4993 16.25C76.4993 18.384 76.079 20.4971 75.2624 22.4686C74.4458 24.4401 73.2488 26.2315 71.7398 27.7405C70.2309 29.2494 68.4395 30.4464 66.468 31.263C64.4964 32.0797 62.3833 32.5 60.2493 32.5C58.1154 32.5 56.0023 32.0797 54.0307 31.263C52.0592 30.4464 50.2678 29.2494 48.7589 27.7405C47.2499 26.2315 46.0529 24.4401 45.2363 22.4686C44.4197 20.4971 43.9993 18.384 43.9993 16.25C43.9993 11.9402 45.7114 7.80698 48.7589 4.75952C51.8063 1.71205 55.9396 0 60.2493 0C64.5591 0 68.6924 1.71205 71.7398 4.75952C74.7873 7.80698 76.4993 11.9402 76.4993 16.25ZM38.236 39.4333C36.0692 38.751 33.8357 38.3025 31.5735 38.0954C30.3024 37.9745 29.0262 37.9149 27.7493 37.9167C6.08268 37.9167 0.666016 54.1667 0.666016 59.5833C0.666016 63.1962 2.46977 65 6.08268 65H28.9193C28.1164 63.309 27.7159 61.455 27.7493 59.5833C27.7493 54.1125 29.7914 48.5225 33.6535 43.8533C34.9698 42.2608 36.5027 40.7712 38.236 39.4333ZM27.316 43.3333C18.281 43.4417 13.1514 46.8 10.1993 50.245C6.9656 54.0042 6.08268 58.1696 6.08268 59.5833H22.3327C22.3327 53.9229 24.0823 48.2842 27.316 43.3333ZM8.79102 18.9583C8.79102 14.6486 10.5031 10.5153 13.5505 7.46785C16.598 4.42038 20.7312 2.70833 25.041 2.70833C29.3508 2.70833 33.484 4.42038 36.5315 7.46785C39.579 10.5153 41.291 14.6486 41.291 18.9583C41.291 23.2681 39.579 27.4014 36.5315 30.4488C33.484 33.4963 29.3508 35.2083 25.041 35.2083C20.7312 35.2083 16.598 33.4963 13.5505 30.4488C10.5031 27.4014 8.79102 23.2681 8.79102 18.9583ZM25.041 8.125C22.1678 8.125 19.4123 9.26637 17.3807 11.298C15.349 13.3297 14.2077 16.0852 14.2077 18.9583C14.2077 21.8315 15.349 24.587 17.3807 26.6187C19.4123 28.6503 22.1678 29.7917 25.041 29.7917C27.9142 29.7917 30.6697 28.6503 32.7013 26.6187C34.733 24.587 35.8743 21.8315 35.8743 18.9583C35.8743 16.0852 34.733 13.3297 32.7013 11.298C30.6697 9.26637 27.9142 8.125 25.041 8.125Z" fill="#41B1E9"/>
</svg>
