<svg width="18" height="19" viewBox="0 0 18 19" fill="none" xmlns="http://www.w3.org/2000/svg">
<path opacity="0.3" d="M3.53906 2.5H2.03906C2.12906 3.82 2.37906 5.08 2.78906 6.29L3.98906 5.08C3.74906 4.25 3.59906 3.38 3.53906 2.5ZM12.1991 15.71C13.4091 16.12 14.6791 16.38 15.9991 16.47V14.97C15.1191 14.9 14.2491 14.75 13.3991 14.52L12.1991 15.71Z" fill="black"/>
<path d="M12 9.5H14C14 6.74 11.76 4.5 9 4.5V6.5C10.66 6.5 12 7.84 12 9.5ZM16 9.5H18C18 7.11305 17.0518 4.82387 15.364 3.13604C13.6761 1.44821 11.3869 0.5 9 0.5V2.5C12.87 2.5 16 5.63 16 9.5ZM17 13C15.75 13 14.55 12.8 13.43 12.43C13.33 12.4 13.22 12.38 13.12 12.38C12.86 12.38 12.61 12.48 12.41 12.67L10.21 14.87C7.37119 13.4262 5.06378 11.1188 3.62 8.28L5.82 6.07C5.95245 5.94434 6.04632 5.78352 6.0906 5.6064C6.13488 5.42928 6.12773 5.2432 6.07 5.07C5.69065 3.91806 5.49821 2.7128 5.5 1.5C5.5 0.95 5.05 0.5 4.5 0.5H1C0.45 0.5 0 0.95 0 1.5C0 10.89 7.61 18.5 17 18.5C17.55 18.5 18 18.05 18 17.5V14C18 13.45 17.55 13 17 13ZM2.03 2.5H3.53C3.6 3.38 3.75 4.25 3.98 5.08L2.78 6.29C2.38 5.08 2.12 3.82 2.03 2.5ZM16 16.47C14.68 16.38 13.4 16.12 12.2 15.71L13.4 14.51C14.25 14.75 15.12 14.9 16 14.96V16.47Z" fill="black"/>
</svg>
